<svg width="16" height="16" viewBox="0 0 16 16" fill="none" xmlns="http://www.w3.org/2000/svg">
<path d="M14.9831 13.0002H14V6.00019C14 5.73498 13.8946 5.48062 13.7071 5.29309C13.5196 5.10555 13.2652 5.00019 13 5.00019H10.25C10.1837 5.00019 10.1201 5.02653 10.0732 5.07342C10.0263 5.1203 10 5.18389 10 5.25019V13.0002H9V2.02582C9.00166 1.87006 8.96785 1.71596 8.90115 1.57519C8.83445 1.43443 8.7366 1.31068 8.615 1.21332C8.44925 1.08409 8.247 1.01037 8.03697 1.00263C7.82694 0.994891 7.61981 1.05352 7.445 1.17019L2.445 4.50019C2.30784 4.59171 2.19543 4.71572 2.11779 4.86118C2.04015 5.00665 1.99969 5.16906 2 5.33394V13.0002H1.01687C0.887666 12.9983 0.762528 13.0454 0.666633 13.132C0.570739 13.2186 0.511202 13.3383 0.5 13.4671C0.495459 13.5355 0.505028 13.6041 0.528114 13.6686C0.5512 13.7331 0.58731 13.7922 0.634199 13.8422C0.681089 13.8922 0.737758 13.9321 0.800686 13.9592C0.863613 13.9864 0.931456 14.0003 1 14.0002H15C15.0685 14.0003 15.1364 13.9864 15.1993 13.9592C15.2622 13.9321 15.3189 13.8922 15.3658 13.8422C15.4127 13.7922 15.4488 13.7331 15.4719 13.6686C15.495 13.6041 15.5045 13.5355 15.5 13.4671C15.4888 13.3383 15.4293 13.2186 15.3334 13.132C15.2375 13.0454 15.1123 12.9983 14.9831 13.0002ZM4.75 11.5002C4.75015 11.5687 4.73621 11.6366 4.70903 11.6995C4.68186 11.7624 4.64204 11.8191 4.59204 11.866C4.54205 11.9129 4.48294 11.949 4.4184 11.9721C4.35386 11.9952 4.28527 12.0047 4.21688 12.0002C4.08803 11.989 3.96822 11.9294 3.88159 11.8333C3.79495 11.7373 3.74793 11.612 3.75 11.4827V10.5171C3.74824 10.3879 3.79538 10.2628 3.88197 10.167C3.96856 10.0711 4.08819 10.0115 4.21688 10.0002C4.28527 9.99565 4.35386 10.0052 4.4184 10.0283C4.48294 10.0514 4.54205 10.0875 4.59204 10.1344C4.64204 10.1813 4.68186 10.238 4.70903 10.3009C4.73621 10.3638 4.75015 10.4317 4.75 10.5002V11.5002ZM4.75 8.00019C4.75015 8.06874 4.73621 8.13658 4.70903 8.19951C4.68186 8.26244 4.64204 8.31911 4.59204 8.366C4.54205 8.41289 4.48294 8.44899 4.4184 8.47208C4.35386 8.49517 4.28527 8.50474 4.21688 8.50019C4.08808 8.48884 3.96836 8.42917 3.88176 8.33318C3.79515 8.23718 3.74808 8.11197 3.75 7.98269V7.01707C3.74824 6.8879 3.79538 6.76284 3.88197 6.66698C3.96856 6.57112 4.08819 6.51154 4.21688 6.50019C4.28527 6.49565 4.35386 6.50522 4.4184 6.52831C4.48294 6.55139 4.54205 6.5875 4.59204 6.63439C4.64204 6.68128 4.68186 6.73795 4.70903 6.80088C4.73621 6.86381 4.75015 6.93165 4.75 7.00019V8.00019ZM7.25 11.5002C7.25015 11.5687 7.23621 11.6366 7.20903 11.6995C7.18186 11.7624 7.14204 11.8191 7.09204 11.866C7.04205 11.9129 6.98294 11.949 6.9184 11.9721C6.85386 11.9952 6.78527 12.0047 6.71688 12.0002C6.58825 11.989 6.46862 11.9296 6.38202 11.8338C6.29541 11.738 6.24825 11.613 6.25 11.4839V10.5171C6.2484 10.388 6.29561 10.2631 6.38219 10.1674C6.46876 10.0716 6.5883 10.0122 6.71688 10.0008C6.78527 9.99628 6.85386 10.0058 6.9184 10.0289C6.98294 10.052 7.04205 10.0881 7.09204 10.135C7.14204 10.1819 7.18186 10.2386 7.20903 10.3015C7.23621 10.3644 7.25015 10.4323 7.25 10.5008V11.5002ZM7.25 8.00019C7.25015 8.06874 7.23621 8.13658 7.20903 8.19951C7.18186 8.26244 7.14204 8.31911 7.09204 8.366C7.04205 8.41289 6.98294 8.44899 6.9184 8.47208C6.85386 8.49517 6.78527 8.50474 6.71688 8.50019C6.5883 8.48886 6.46876 8.42937 6.38219 8.33364C6.29561 8.23791 6.2484 8.11301 6.25 7.98394V7.01707C6.2484 6.88801 6.29561 6.76311 6.38219 6.66738C6.46876 6.57165 6.5883 6.51216 6.71688 6.50082C6.78527 6.49628 6.85386 6.50585 6.9184 6.52893C6.98294 6.55202 7.04205 6.58813 7.09204 6.63502C7.14204 6.68191 7.18186 6.73858 7.20903 6.80151C7.23621 6.86443 7.25015 6.93228 7.25 7.00082V8.00019Z" fill="#18181B"/>
</svg>
